<svg xmlns="http://www.w3.org/2000/svg" viewBox="0 0 202.97 39.55"><title>logo-enotas (2)</title><path d="M21.49,16.52h0V.16H37.85l-.12,0A24.13,24.13,0,0,0,21.49,16.52Z" fill="#841e67"/><path d="M0,38H0V21.65H16.36l-.12,0A24.13,24.13,0,0,0,0,38Z" fill="#009ba3"/><path d="M0,16.52H0V.16H16.36l-.12,0A24.13,24.13,0,0,0,0,16.52Z" fill="#e44f25"/><path d="M56.31,26.67a3.13,3.13,0,0,0,3.14-3.09v-.11a16.2,16.2,0,0,0-.25-2.8C58,14.24,52.35,8.26,45.72,8.26c-9.36,0-15.45,6.81-15.45,15.41A15.58,15.58,0,0,0,43.29,39a16.55,16.55,0,0,0,2.55.21A15.54,15.54,0,0,0,56.55,35l.1-.1h0a2.68,2.68,0,0,0,.46-3.19,2.7,2.7,0,0,0-4.27-.63h0a10.18,10.18,0,0,1-16.48-3.69.52.52,0,0,1,.49-.7ZM37,20.67a.42.42,0,0,1-.4-.56A8.78,8.78,0,0,1,53.14,20a.47.47,0,0,1-.45.63Z" fill="#6d7071"/><path d="M92.56,36.18h0a2.9,2.9,0,0,1-.12.89,3.65,3.65,0,0,1-2.88,2.32,3.43,3.43,0,0,1-.56,0,3.64,3.64,0,0,1-3.56-2.94h0a3.23,3.23,0,0,1,0-.53V21.34a7.35,7.35,0,0,0-5.85-7.17A7.19,7.19,0,0,0,78.08,14a7.33,7.33,0,0,0-7.32,7.32V35.7a3.56,3.56,0,0,1-.2,1.25,3.63,3.63,0,0,1-3.41,2.37h-.22a3.59,3.59,0,0,1-2.46-1.19,3.06,3.06,0,0,1,.13-4.34l.17-.14V14.22a3.16,3.16,0,0,1-1.21-3A3.23,3.23,0,0,1,66,8.62c2.9-.74,4.37,2.43,4.37,2.43a13.69,13.69,0,0,1,8.65-2.74,12.27,12.27,0,0,1,9.72,4.87,12,12,0,0,1,2.4,6.38v14A2.93,2.93,0,0,1,92.56,36.18Z" fill="#6d7071"/><path d="M111.76,8.26a15.53,15.53,0,1,0,15.53,15.53A15.53,15.53,0,0,0,111.76,8.26Zm0,25.57a10,10,0,1,1,10-10A10,10,0,0,1,111.76,33.83Z" fill="#6d7071"/><path d="M149.11,36.35a3,3,0,0,1-3,3h-4.46c-4.76,0-8.55-3.06-8.5-9.62l-.1-15.48h0a3,3,0,0,1-3-3h0a3,3,0,0,1,3-3h0V5.61a.87.87,0,0,0-.24-.59h0A3,3,0,0,1,133,.8,2.94,2.94,0,0,1,134.5.05l.12,0C137.07-.29,139,1.94,139,4.88l0,3.39h4.83a3,3,0,0,1,3,3h0a3,3,0,0,1-3,3H139v16a3.08,3.08,0,0,0,3.08,3.09h4a3,3,0,0,1,3,3Z" fill="#6d7071"/><path d="M176.76,34a1.23,1.23,0,0,1-.35-.87V17.3c0-4.49-3.35-9-12-9s-9.73,2.59-9.74,2.61a2.77,2.77,0,0,0,3.62,3.89,6.62,6.62,0,0,1,1.1-.47,15.19,15.19,0,0,1,5.19-.51c4.5.26,6,1.85,5.87,4.87,0,0-9.19-2.61-14.79,1.9s-5.71,12.67.27,17c5,3.67,12.49.59,14.72-.48a.53.53,0,0,1,.72.3A3.27,3.27,0,1,0,176.76,34Zm-7.93-2.44a8.32,8.32,0,0,1-8.36,1.94c-2.93-.95-5-5.42-1.12-8.55,3.33-2.65,9-.9,10.69-.31a.75.75,0,0,1,.49.67C170.58,26.56,170.52,29.91,168.83,31.54Z" fill="#6d7071"/><path d="M187.34,16.59c.12-3.67,6.29-3.88,9.27-1.37a3.1,3.1,0,0,0,2.55.8,2.93,2.93,0,0,0,2.4-2.56,3.58,3.58,0,0,0-1.5-3c-1.48-1-3.54-2.17-7.84-2.17,0,0-10.6-.43-10.78,8.68S197.11,24.45,197,30.53c-.06,3-3,3.17-5.19,3.16-4,0-5.18-2.35-7.52-2.1A2.69,2.69,0,0,0,181.85,34a3.07,3.07,0,0,0,1.07,2.72c1.17,1.07,3.91,2.66,8.88,2.66,7.75,0,10.94-3.39,11.16-7.56C203.55,20.29,187.16,21.77,187.34,16.59Z" fill="#6d7071"/></svg>