<svg xmlns="http://www.w3.org/2000/svg" width="507" height="230.31"><path d="M95.027 48.56a12.387 12.387 0 0 0-12.4 12.37v96.08a12.4 12.4 0 0 0 24.8 0V60.93a12.386 12.386 0 0 0-12.4-12.37zm93.263-2.76a59.394 59.394 0 0 0-59.384 59.27v51.94a12.4 12.4 0 0 0 24.8 0v-51.94a34.587 34.587 0 0 1 69.174 0v51.94a12.4 12.4 0 0 0 24.8 0v-51.94a59.4 59.4 0 0 0-59.39-59.27zm186.508 2.76a12.386 12.386 0 0 0-12.4 12.37v52.02a34.586 34.586 0 0 1-69.172-.09V60.93a12.4 12.4 0 0 0-24.8 0v51.93a59.4 59.4 0 0 0 59.385 59.27c11.084 0 28.445-7.95 34.585-15.87v14.77a34.6 34.6 0 0 1-34.588 34.53 12.375 12.375 0 1 0 0 24.75 59.4 59.4 0 0 0 59.387-59.28V60.93A12.386 12.386 0 0 0 374.8 48.56zM49.967 73.3a12.37 12.37 0 1 0 0-24.74H24.8V26.77a12.4 12.4 0 0 0-24.8 0v80.99c0 32.68 17.224 61.62 49.968 61.62a12.375 12.375 0 1 0 0-24.75c-19.068 0-25.172-24.58-25.172-36.87V73.3h25.171zm44.8-73.31a14.92 14.92 0 1 0 14.946 14.92A14.937 14.937 0 0 0 94.764-.01zm313.251 166.83v-43.21a1.946 1.946 0 0 1 .9-1.67 3.677 3.677 0 0 1 2.125-.62h22.926a1.87 1.87 0 0 1 1.674.92 3.833 3.833 0 0 1 .579 2.09 3.9 3.9 0 0 1-.611 2.22 1.893 1.893 0 0 1-1.642.92h-19.128v14.97h9.918a1.955 1.955 0 0 1 1.642.81 3.255 3.255 0 0 1 .611 2 3.111 3.111 0 0 1-.579 1.86 1.917 1.917 0 0 1-1.674.82h-9.918v15.03h19.127a1.893 1.893 0 0 1 1.642.92 3.9 3.9 0 0 1 .611 2.22 3.833 3.833 0 0 1-.579 2.09 1.87 1.87 0 0 1-1.674.92h-22.926a3.677 3.677 0 0 1-2.125-.62 1.934 1.934 0 0 1-.902-1.67zm33.681 0v-43.27a2.226 2.226 0 0 1 2.253-2.23h12.236q14.811 0 14.813 13.34 0 5.535-2.448 8.69a11.729 11.729 0 0 1-6.633 4.2l9.016 17.23a1.983 1.983 0 0 1 .258.98 3.194 3.194 0 0 1-1.321 2.43 4.289 4.289 0 0 1-2.8 1.11 3.057 3.057 0 0 1-2.7-2.03l-9.4-18.75h-6.5v18.29a1.886 1.886 0 0 1-1 1.67 4.853 4.853 0 0 1-4.765.01 1.9 1.9 0 0 1-1.008-1.67zm6.761-23.79h7.728q7.986 0 7.987-7.78t-7.987-7.78h-7.728v15.56zm29.237 23.79v-43.27a2.015 2.015 0 0 1 .74-1.57 2.751 2.751 0 0 1 1.9-.66h12.558q6.439 0 10.272 3.47T507 135.7v.53q0 7.455-3.961 10.95t-10.53 3.49h-7.989v16.15a1.9 1.9 0 0 1-1 1.67 4.953 4.953 0 0 1-4.8 0 1.888 1.888 0 0 1-1.026-1.67zm6.826-21.64h7.985a7.381 7.381 0 0 0 5.667-2.12q2-2.13 2-6.37v-.79c0-2.83-.666-4.95-2-6.34a7.476 7.476 0 0 0-5.667-2.09h-7.988v17.71z" fill="#0050dc" fill-rule="evenodd"/></svg>